  <svg
      version="1.1"
      xmlns="http://www.w3.org/2000/svg"
      xmlns:xlink="http://www.w3.org/1999/xlink"
      xmlns:i="http://ns.adobe.com/AdobeIllustrator/10.0/"
      xmlns:sketch="http://www.bohemiancoding.com/sketch/ns"
      height="100%"
      width="100%"
      x="0px"
      y="0px"
      viewBox="0 0 640 480"
      xml:space="preserve"
      preserveAspectRatio="xMidYMid meet"
      class=""
    >
      <defs>
        <linearGradient id="textGradient258061531">
          <stop offset="0.05" stop-color="#6E6F71"></stop>
          <stop offset="0.95" stop-color="#ECECEC"></stop>
        </linearGradient>
      </defs>
      <defs>
        <linearGradient id="sloganGradient258061531">
          <stop offset="0.05" stop-color="#6E6F71"></stop>
          <stop offset="0.95" stop-color="#ECECEC"></stop>
        </linearGradient>
      </defs>
      {{ iconGradient }}
      <rect x="0px" y="0px" width="100%" height="100%" fill="#020024"></rect>
      <g
        class="logo-container-box logoContainerBox"
        transform="scale(0.5) translate(3.2323156029286793,2.4242424242424363)"
      >
        <g
          class="containerBody"
          transform="scale(1) translate(-34.285721915108866,-25.714293343680254)"
        >
          <g
            class="sampleTexts_1"
            transform="scale(1) translate(0.00000762939453125,15.334999084472656)"
          >
            <g
              class="logo--name svgLogoName_1 logoNameBox"
              transform="scale(2) translate(214.18199554085732,254.27000045776367)"
              fill="url(#textGradient258061531)"
            >
              <path
                d="M12.55-24.19L12.55-24.19L12.55-24.19Q12.38-24.19 12.14-24.23L12.14-24.23L12.14-24.23Q11.89-24.27 11.73-24.27L11.73-24.27L11.73-24.27Q9.27-24.27 7.22-23.94L7.22-23.94L7.22-23.94Q10.91-23.62 12.55-24.19ZM46.33-15.66L46.33-15.66L46.33-15.66Q46.82-15.50 47.89-15.42L47.89-15.42L47.89-15.42Q52.15-15.42 54.37-17.06L54.37-17.06L54.37-17.06Q55.19-17.63 55.27-18.12L55.27-18.12L55.27-18.29L55.10-18.53L55.10-18.53Q50.84-17.63 47.97-16.48L47.97-16.48L47.97-16.48Q46.74-15.99 46.33-15.66ZM3.85-24.52L3.85-24.52L3.85-24.52Q7.71-25.91 11.73-25.67L11.73-25.67L11.73-25.67Q14.10-25.67 14.68-24.60L14.68-24.60L14.68-24.44L14.76-24.19L14.76-23.86L14.76-23.86Q14.76-22.39 12.10-22.06L12.10-22.06L12.10-22.06Q9.43-21.73 6.85-22.06L6.85-22.06L6.85-22.06Q4.26-22.39 3.28-22.80L3.28-22.80L3.28-22.80Q1.56-21.89 1.23-20.99L1.23-20.99L1.23-20.66L1.23-20.66Q1.23-19.84 6.31-19.84L6.31-19.84L6.31-19.84Q9.51-19.84 12.87-20.17L12.87-20.17L12.87-20.17Q24.27-21.16 39.85-24.35L39.85-24.35L39.85-24.35Q44.36-25.91 51.50-27.14L51.50-27.14L53.46-27.47L53.46-27.47Q54.20-27.55 54.53-27.55L54.53-27.55L54.69-27.55L54.69-27.55Q54.69-27.63 54.69-27.63L54.69-27.63L54.69-27.63Q54.94-27.63 55.02-26.98L55.02-26.98L55.02-26.98Q55.10-26.73 54.94-26.73L54.94-26.73L54.94-26.73Q53.96-26.24 50.02-25.42L50.02-25.42L50.02-25.42Q44.61-24.27 40.59-23.45L40.59-23.45L40.59-23.45Q38.79-22.80 38.05-22.06L38.05-22.06L38.05-22.06Q38.70-21.32 41.74-21.07L41.74-21.07L41.74-21.07Q43.71-20.91 45.59-20.91L45.59-20.91L45.59-20.91Q46.17-20.91 48.01-20.87L48.01-20.87L48.01-20.87Q49.86-20.83 50.80-20.79L50.80-20.79L50.80-20.79Q51.74-20.75 53.05-20.50L53.05-20.50L53.05-20.50Q54.37-20.25 55.19-19.84L55.19-19.84L55.19-19.84Q64.29-22.06 75.93-22.55L75.93-22.55L75.93-22.55Q77.65-22.63 83.39-22.47L83.39-22.47L83.39-22.47Q84.13-22.30 84.05-21.65L84.05-21.65L84.05-21.65Q83.89-21.16 83.15-21.24L83.15-21.24L83.15-21.24Q79.79-21.57 76.01-21.40L76.01-21.40L76.01-21.40Q67.16-21.16 56.33-18.78L56.33-18.78L56.33-18.78Q56.42-18.53 56.42-18.29L56.42-18.29L56.42-17.96L56.42-17.96Q56.25-16.40 53.38-15.33L53.38-15.33L53.38-15.33Q50.59-14.27 47.89-14.27L47.89-14.27L47.89-14.27Q45.76-14.27 45.18-15.42L45.18-15.42L45.18-15.74L45.18-15.74Q45.35-16.65 47.56-17.55L47.56-17.55L47.56-17.55Q49.94-18.45 53.22-19.35L53.22-19.35L53.22-19.35Q51.58-19.60 49.61-19.72L49.61-19.72L49.61-19.72Q47.64-19.84 45.26-19.93L45.26-19.93L45.26-19.93Q42.89-20.01 41.49-20.09L41.49-20.09L41.49-20.09Q37.88-20.34 37.06-21.48L37.06-21.48L37.06-21.48Q37.06-21.57 37.06-21.65L37.06-21.65L37.06-21.65Q37.06-21.73 36.98-21.73L36.98-21.73L36.98-21.73Q36.98-21.81 36.98-21.89L36.98-21.89L36.98-22.14L36.98-22.14Q36.98-22.47 37.15-22.71L37.15-22.71L37.15-22.71Q23.45-20.01 12.96-18.70L12.96-18.70L12.96-18.70Q8.86-18.29 6.23-18.20L6.23-18.20L6.23-18.20Q4.35-18.20 3.44-18.25L3.44-18.25L3.44-18.25Q2.54-18.29 1.27-18.74L1.27-18.74L1.27-18.74Q0-19.19-0.33-20.01L-0.33-20.01L-0.33-20.01Q-0.41-20.34-0.41-20.42L-0.41-20.42L-0.41-20.99L-0.41-20.99Q-0.41-20.99-0.37-21.07L-0.37-21.07L-0.37-21.07Q-0.33-21.16-0.33-21.24L-0.33-21.24L-0.33-21.24Q0.16-23.04 3.20-24.27L3.20-24.27L3.20-24.27Q3.44-24.52 3.85-24.52ZM87.08-42.15L87.08-42.15L87.08-42.15Q85.36-37.31 84.71-25.09L84.71-25.09L84.71-25.09Q84.62-24.27 84.62-23.86L84.62-23.86L84.62-23.86Q87.74-27.96 88.81-34.11L88.81-34.11L88.81-34.11Q89.95-41.25 87.74-43.46L87.74-43.46L87.74-43.46Q87.41-43.13 87.08-42.15ZM87.58-44.94L87.58-44.94L87.58-44.94Q87.99-44.94 88.31-44.77L88.31-44.77L88.31-44.77Q88.31-44.77 88.40-44.77L88.40-44.77L88.48-44.69L88.56-44.61L88.56-44.61Q90.28-42.89 90.49-39.40L90.49-39.40L90.49-39.40Q90.69-35.92 89.95-32.88L89.95-32.88L89.95-32.88Q89.22-29.85 88.07-27.47L88.07-27.47L88.07-27.47Q86.84-24.68 85.53-23.04L85.53-23.04L85.03-22.30L84.54-21.81L84.54-21.81Q84.54-21.48 84.54-20.66L84.54-20.66L84.54-20.66Q84.54-19.84 84.54-19.52L84.54-19.52L84.54-17.55L84.54-17.55Q89.13-20.91 94.05-22.71L94.05-22.71L94.05-22.71Q94.14-22.71 94.71-22.92L94.71-22.92L94.71-22.92Q95.28-23.12 95.49-23.17L95.49-23.17L95.49-23.17Q95.69-23.21 96.23-23.37L96.23-23.37L96.23-23.37Q96.76-23.53 97.01-23.57L97.01-23.57L97.01-23.57Q97.25-23.62 97.79-23.74L97.79-23.74L97.79-23.74Q98.32-23.86 98.65-23.86L98.65-23.86L98.65-23.86Q98.97-23.86 99.47-23.90L99.47-23.90L99.47-23.90Q99.96-23.94 100.33-23.90L100.33-23.90L100.33-23.90Q100.70-23.86 101.11-23.78L101.11-23.78L101.11-23.78Q101.52-23.70 101.93-23.53L101.93-23.53L101.93-23.53Q102.91-23.04 104.02-22.26L104.02-22.26L104.02-22.26Q105.12-21.48 106.23-20.75L106.23-20.75L106.23-20.75Q107.34-20.01 108.32-19.60L108.32-19.60L108.32-19.60Q109.72-19.02 112.83-18.53L112.83-18.53L113.16-18.53L113.98-18.45L113.98-18.45Q121.20-19.27 127.84-22.80L127.84-22.80L127.84-22.80Q128.25-22.96 128.62-22.76L128.62-22.76L128.62-22.76Q128.99-22.55 129.03-22.18L129.03-22.18L129.03-22.18Q129.07-21.81 128.66-21.48L128.66-21.48L128.66-21.48Q125.30-19.60 120.13-17.96L120.13-17.96L120.13-17.96Q118.98-17.63 118.65-17.55L118.65-17.55L117.10-17.30L117.10-17.30Q116.77-17.22 116.36-17.18L116.36-17.18L116.36-17.18Q115.95-17.14 115.58-17.10L115.58-17.10L115.58-17.10Q115.21-17.06 114.72-17.02L114.72-17.02L114.72-17.02Q114.23-16.97 113.98-16.97L113.98-16.97L113.16-17.06L112.34-17.06L112.34-17.06Q108.40-17.55 105.04-19.76L105.04-19.76L105.04-19.76Q104.71-19.93 104.18-20.34L104.18-20.34L104.18-20.34Q103.65-20.75 103.28-21.03L103.28-21.03L103.28-21.03Q102.91-21.32 102.42-21.61L102.42-21.61L102.42-21.61Q101.93-21.89 101.35-22.10L101.35-22.10L101.35-22.10Q100.78-22.30 100.20-22.30L100.20-22.30L100.20-22.30Q97.83-22.47 94.63-21.24L94.63-21.24L94.63-21.24Q89.54-19.43 84.38-15.58L84.38-15.58L84.38-15.58Q84.05-15.33 83.60-15.50L83.60-15.50L83.60-15.50Q83.15-15.66 83.15-16.07L83.15-16.07L83.15-16.07Q82.98-17.30 82.98-19.52L82.98-19.52L82.98-19.52Q82.98-29.44 84.87-39.44L84.87-39.44L84.87-39.44Q85.61-43.13 86.59-44.36L86.59-44.36L86.59-44.36Q87.00-44.94 87.33-44.94L87.33-44.94L87.33-44.94Q87.41-44.94 87.49-44.94L87.49-44.94L87.49-44.94Q87.58-44.94 87.58-44.94ZM127.67-19.60L127.67-19.60L127.67-19.60Q127.67-18.70 130.63-18.70L130.63-18.70L130.63-18.70Q133.82-18.70 138.83-20.01L138.83-20.01L138.83-20.01Q141.29-20.66 144.07-21.65L144.07-21.65L144.24-21.81L144.24-21.81Q142.52-23.53 139.03-23.94L139.03-23.94L139.03-23.94Q135.55-24.35 132.31-23.41L132.31-23.41L132.31-23.41Q129.07-22.47 128.00-20.58L128.00-20.58L128.00-20.58Q127.67-20.09 127.67-20.01L127.67-20.01L127.67-20.01Q127.67-19.84 127.67-19.60ZM149.90-21.98L149.90-21.98L149.90-21.98Q149.90-20.99 151.17-20.50L151.17-20.50L151.17-20.50Q152.44-20.01 153.83-20.01L153.83-20.01L155.31-20.01L155.31-20.01Q156.62-20.09 157.97-20.25L157.97-20.25L157.97-20.25Q159.33-20.42 160.31-20.58L160.31-20.58L160.31-20.58Q161.29-20.75 162.85-21.12L162.85-21.12L162.85-21.12Q164.41-21.48 164.98-21.61L164.98-21.61L164.98-21.61Q165.56-21.73 167.40-22.22L167.40-22.22L167.40-22.22Q169.25-22.71 169.58-22.80L169.58-22.80L169.58-22.80Q169.99-22.88 170.27-22.59L170.27-22.59L170.27-22.59Q170.56-22.30 170.44-21.85L170.44-21.85L170.44-21.85Q170.31-21.40 169.90-21.32L169.90-21.32L169.90-21.32Q169.49-21.24 168.55-20.99L168.55-20.99L168.55-20.99Q167.61-20.75 167.12-20.62L167.12-20.62L167.12-20.62Q166.62-20.50 165.76-20.25L165.76-20.25L165.76-20.25Q164.90-20.01 164.33-19.89L164.33-19.89L164.33-19.89Q163.75-19.76 162.93-19.56L162.93-19.56L162.93-19.56Q162.11-19.35 161.46-19.27L161.46-19.27L161.46-19.27Q160.80-19.19 159.98-19.02L159.98-19.02L159.98-19.02Q159.16-18.86 158.42-18.78L158.42-18.78L158.42-18.78Q157.69-18.70 156.87-18.61L156.87-18.61L156.87-18.61Q156.05-18.53 155.23-18.53L155.23-18.53L153.67-18.53L153.67-18.53Q151.62-18.53 150.06-19.39L150.06-19.39L150.06-19.39Q148.50-20.25 148.34-21.98L148.34-21.98L148.34-21.98Q147.85-21.81 146.58-21.24L146.58-21.24L146.58-21.24Q145.30-20.66 144.57-20.42L144.57-20.42L144.57-20.42Q138.33-18.37 133.50-17.71L133.50-17.71L133.50-17.71Q131.94-17.38 130.63-17.38L130.63-17.38L130.63-17.38Q126.61-17.38 126.28-19.52L126.28-19.52L126.28-19.52Q126.28-19.84 126.36-20.13L126.36-20.13L126.36-20.13Q126.44-20.42 126.61-20.71L126.61-20.71L126.61-20.71Q126.77-20.99 126.77-21.16L126.77-21.16L126.77-21.16Q128.08-23.45 131.45-24.64L131.45-24.64L131.45-24.64Q134.81-25.83 138.54-25.54L138.54-25.54L138.54-25.54Q142.27-25.26 144.65-23.62L144.65-23.62L144.65-23.62Q145.06-23.45 145.51-22.88L145.51-22.88L145.51-22.88Q145.96-22.30 145.96-22.30L145.96-22.30L145.96-22.30Q147.93-23.04 148.91-23.94L148.91-23.94L148.91-23.94Q149.40-24.27 149.86-23.90L149.86-23.90L149.86-23.90Q150.31-23.53 150.14-23.04L150.14-23.04L150.14-23.04Q149.90-22.63 149.90-21.98ZM169.25-19.60L169.25-19.60L169.25-19.60Q169.25-18.70 172.20-18.70L172.20-18.70L172.20-18.70Q175.40-18.70 180.40-20.01L180.40-20.01L180.40-20.01Q182.86-20.66 185.65-21.65L185.65-21.65L185.81-21.81L185.81-21.81Q184.09-23.53 180.61-23.94L180.61-23.94L180.61-23.94Q177.12-24.35 173.88-23.41L173.88-23.41L173.88-23.41Q170.64-22.47 169.58-20.58L169.58-20.58L169.58-20.58Q169.25-20.09 169.25-20.01L169.25-20.01L169.25-20.01Q169.25-19.84 169.25-19.60ZM191.47-21.98L191.47-21.98L191.47-21.98Q191.47-20.99 192.74-20.50L192.74-20.50L192.74-20.50Q194.01-20.01 195.41-20.01L195.41-20.01L196.88-20.01L196.88-20.01Q198.19-20.09 199.55-20.25L199.55-20.25L199.55-20.25Q200.90-20.42 201.88-20.58L201.88-20.58L201.88-20.58Q202.87-20.75 204.43-21.12L204.43-21.12L204.43-21.12Q205.98-21.48 206.56-21.61L206.56-21.61L206.56-21.61Q207.13-21.73 208.98-22.22L208.98-22.22L208.98-22.22Q210.82-22.71 211.15-22.80L211.15-22.80L211.15-22.80Q211.56-22.88 211.85-22.59L211.85-22.59L211.85-22.59Q212.13-22.30 212.01-21.85L212.01-21.85L212.01-21.85Q211.89-21.40 211.48-21.32L211.48-21.32L211.48-21.32Q211.07-21.24 210.13-20.99L210.13-20.99L210.13-20.99Q209.18-20.75 208.69-20.62L208.69-20.62L208.69-20.62Q208.20-20.50 207.34-20.25L207.34-20.25L207.34-20.25Q206.48-20.01 205.90-19.89L205.90-19.89L205.90-19.89Q205.33-19.76 204.51-19.56L204.51-19.56L204.51-19.56Q203.69-19.35 203.03-19.27L203.03-19.27L203.03-19.27Q202.38-19.19 201.56-19.02L201.56-19.02L201.56-19.02Q200.74-18.86 200.00-18.78L200.00-18.78L200.00-18.78Q199.26-18.70 198.44-18.61L198.44-18.61L198.44-18.61Q197.62-18.53 196.80-18.53L196.80-18.53L195.24-18.53L195.24-18.53Q193.19-18.53 191.63-19.39L191.63-19.39L191.63-19.39Q190.08-20.25 189.91-21.98L189.91-21.98L189.91-21.98Q189.42-21.81 188.15-21.24L188.15-21.24L188.15-21.24Q186.88-20.66 186.14-20.42L186.14-20.42L186.14-20.42Q179.91-18.37 175.07-17.71L175.07-17.71L175.07-17.71Q173.51-17.38 172.20-17.38L172.20-17.38L172.20-17.38Q168.18-17.38 167.85-19.52L167.85-19.52L167.85-19.52Q167.85-19.84 167.94-20.13L167.94-20.13L167.94-20.13Q168.02-20.42 168.18-20.71L168.18-20.71L168.18-20.71Q168.35-20.99 168.35-21.16L168.35-21.16L168.35-21.16Q169.66-23.45 173.02-24.64L173.02-24.64L173.02-24.64Q176.38-25.83 180.11-25.54L180.11-25.54L180.11-25.54Q183.84-25.26 186.22-23.62L186.22-23.62L186.22-23.62Q186.63-23.45 187.08-22.88L187.08-22.88L187.08-22.88Q187.53-22.30 187.53-22.30L187.53-22.30L187.53-22.30Q189.50-23.04 190.49-23.94L190.49-23.94L190.49-23.94Q190.98-24.27 191.43-23.90L191.43-23.90L191.43-23.90Q191.88-23.53 191.72-23.04L191.72-23.04L191.72-23.04Q191.47-22.63 191.47-21.98Z"
              ></path>
            </g>
            <g
              id=""
              class="logo--name svgSloganText_1 sloganBox"
              transform="scale(1) translate(320,254.4)"
              fill="url(#sloganGradient258061531)"
            ></g>
          </g>
        </g>
      </g>
    </svg>